# xmcd CD database file
#
# Track frame offsets:
#	150
#	10076
#	18966
#	31801
#	40395
#	53541
#	62135
#	71049
#	81384
#	91484
#
# Disc length: 1354 seconds
#
# Revision: 0
# Processed by: cddbd v1.5.2PL0 Copyright (c) Steve Scherf et al.
# Submitted via: CDex 1.70beta2
#
DISCID=7905480a
DTITLE=Munro, Bev - Cdn. - The Ledgend
DYEAR=2005
DGENRE=Country
TTITLE0=Babysittin' With the Blues
TTITLE1=Billy Bayou
TTITLE2=Too Close to Home
TTITLE3=Let's Have A B lue for the Blues
TTITLE4=Hello Operator
TTITLE5=The Wheels Fell Off the Wagon
TTITLE6=Poor Little Doll
TTITLE7=I'm Not Supposed To Think of You
TTITLE8=Jim Bridger
TTITLE9=The Waltz That Never Ends
EXTD=YEAR: 2005
EXTT0=
EXTT1=
EXTT2=
EXTT3=
EXTT4=
EXTT5=
EXTT6=
EXTT7=
EXTT8=
EXTT9=
PLAYORDER=
